HIERARCHY
ROOT hip
{
	OFFSET 0.000000 0.000000 0.000000 
	CHANNELS 6 Xposition Yposition Zposition Xrotation Zrotation Yrotation
	JOINT abdomen
	{
		OFFSET 0.000000 3.402643 0.000000 
		CHANNELS 3 Xrotation Zrotation Yrotation
		JOINT chest
		{
			OFFSET 0.000000 8.438565 -0.680529 
			CHANNELS 3 Xrotation Zrotation Yrotation
			JOINT neck
			{
				OFFSET 0.000000 10.207942 -0.272212 
				CHANNELS 3 Xrotation Zrotation Yrotation
				JOINT head
				{
					OFFSET 0.000000 3.130431 0.000000 
					CHANNELS 3 Xrotation Zrotation Yrotation
					End Site
					{
						OFFSET 0.000000 3.130435 0.000000 
					}
				}
			}
			JOINT lCollar
			{
				OFFSET 3.470700 6.669187 -0.816635 
				CHANNELS 3 Yrotation Zrotation Xrotation
				JOINT lShldr
				{
					OFFSET 3.198488 0.000000 0.000000 
					CHANNELS 3 Zrotation Yrotation Xrotation
					JOINT lForeArm
					{
						OFFSET 10.139888 0.000000 0.000000 
						CHANNELS 3 Yrotation Zrotation Xrotation
						JOINT lHand
						{
							OFFSET 8.370511 0.000000 0.000000 
							CHANNELS 3 Zrotation Yrotation Xrotation
							End Site
							{
								OFFSET 4.083176 0.000000 0.000000 
							}
						}
					}
				}
			}
			JOINT rCollar
			{
				OFFSET -3.470700 6.669187 -0.816635 
				CHANNELS 3 Yrotation Zrotation Xrotation
				JOINT rShldr
				{
					OFFSET -3.198488 0.000000 0.000000 
					CHANNELS 3 Zrotation Yrotation Xrotation
					JOINT rForeArm
					{
						OFFSET -10.139888 0.000000 0.000000 
						CHANNELS 3 Yrotation Zrotation Xrotation
						JOINT rHand
						{
							OFFSET -8.370511 0.000000 0.000000 
							CHANNELS 3 Zrotation Yrotation Xrotation
							End Site
							{
								OFFSET -4.083176 0.000000 0.000000 
							}
						}
					}
				}
			}
		}
	}
	JOINT lThigh
	{
		OFFSET 5.308129 -1.633274 1.361059 
		CHANNELS 3 Xrotation Zrotation Yrotation
		JOINT lShin
		{
			OFFSET -2.041588 -20.007561 0.000000 
			CHANNELS 3 Xrotation Zrotation Yrotation
			JOINT lFoot
			{
				OFFSET 0.000000 -19.190928 -1.224953 
				CHANNELS 3 Xrotation Yrotation Zrotation
				End Site
				{
					OFFSET 0.000000 -2.449906 4.627600 
				}
			}
		}
	}
	JOINT rThigh
	{
		OFFSET -5.308129 -1.633274 1.361059 
		CHANNELS 3 Xrotation Zrotation Yrotation
		JOINT rShin
		{
			OFFSET 2.041588 -20.007561 0.000000 
			CHANNELS 3 Xrotation Zrotation Yrotation
			JOINT rFoot
			{
				OFFSET 0.000000 -19.190928 -1.224953 
				CHANNELS 3 Xrotation Yrotation Zrotation
				End Site
				{
					OFFSET 0.000000 -2.449906 4.627600 
				}
			}
		}
	}
}
MOTION
Frames: 9
Frame Time: 0.016667
-0.210618 46.206631 0.837248 1.192133 -3.264705 -59.258060 25.915314 0.234267 1.738307 -10.537107 -5.222279 1.715221 -14.296413 -1.119549 13.703656 17.936150 5.460086 13.951607 17.436436 -8.819312 -0.159498 -58.546204 -20.926365 21.841553 -132.332108 -0.311336 19.821112 26.863321 16.487331 7.562945 -6.179281 15.207959 -0.122670 39.702381 -6.773709 34.304008 114.181099 1.728804 -1.504079 -26.853823 2.155821 -1.276703 -24.223888 21.652166 18.662601 25.346539 -1.348924 -2.130267 -13.727617 -6.837762 -13.432149 -1.622722 -9.848180 -28.411739 39.480701 0.288188 2.458951 -38.559544 -0.995081 12.059632 
-0.302947 46.148300 1.128861 1.366069 -3.350931 -59.954151 25.925472 0.273335 1.572294 -10.365907 -4.871276 1.548175 -14.380763 -0.959050 13.507690 17.582731 4.933259 13.753560 17.349747 -8.904048 -0.150357 -58.744396 -18.289675 21.966349 -131.962418 -0.298490 19.951645 26.562054 17.765219 8.031872 -6.275558 15.552219 -0.051995 39.204014 -4.747245 33.477337 114.889740 1.742950 -1.705575 -26.108305 1.653926 -0.908057 -23.827682 21.952305 17.790960 24.804325 -1.440662 -2.120462 -15.629397 -6.339467 -13.680990 -1.457647 -10.031405 -27.898529 39.480701 0.353034 2.471139 -38.287445 -0.771977 12.222026 
-0.360562 46.084843 1.469030 1.554632 -3.267499 -60.919441 25.755415 0.156212 1.269553 -9.656509 -4.256733 1.292030 -14.644361 -0.883410 13.419506 17.309963 4.320069 13.555207 17.230164 -9.706675 -0.093581 -58.668934 -15.389380 21.057020 -131.447357 -0.271594 20.826464 24.777626 18.601727 7.698901 -6.243963 15.648612 -0.132055 39.332916 -1.642379 31.747419 115.413002 1.700114 -1.512821 -24.438681 1.711212 -0.884514 -23.599606 22.327105 17.777264 24.475523 -1.426867 -2.022825 -16.458000 -5.906741 -13.554435 -1.632431 -10.316321 -27.310856 39.655998 0.190707 2.453189 -38.207588 -0.300263 12.741914 
-0.418175 46.021389 1.809178 1.724152 -3.176674 -61.893154 25.576996 0.048821 0.966805 -8.953414 -3.651736 1.046532 -14.898291 -0.807745 13.321580 17.042080 3.705687 13.368874 17.112213 -10.519308 -0.036705 -58.649147 -12.492874 20.179213 -130.926956 -0.232163 21.692966 22.982935 19.429106 7.354193 -6.224602 15.743926 -0.202766 39.367142 1.462144 30.010134 115.944687 1.668738 -1.320001 -22.759365 1.777655 -0.861856 -23.357529 22.721262 17.767540 24.126427 -1.426945 -1.926686 -17.296371 -5.463875 -13.427267 -1.828154 -10.607579 -26.702250 39.841946 0.044213 2.401718 -38.119938 0.189744 13.250623 
-0.488847 45.970036 2.197537 2.159274 -2.998885 -63.300575 25.146484 0.000000 0.781250 -8.509072 -3.388273 0.880256 -14.893779 -0.380330 13.183881 16.959398 3.174773 13.272889 17.097027 -10.713464 -0.066013 -58.872452 -9.480231 18.898655 -129.756744 -0.198084 21.914906 22.063669 17.368618 6.285635 -6.837165 15.582726 -0.141245 41.008766 4.822560 28.493446 116.369499 1.677748 -0.759190 -21.879219 1.727233 -0.809037 -23.337587 23.325743 17.938755 24.212063 -1.430990 -1.990384 -18.034332 -5.076592 -13.512520 -2.178575 -10.973102 -25.913698 39.750031 0.278692 2.312571 -37.569698 0.928299 13.668753 
-0.559518 45.918690 2.585885 2.600896 -2.813940 -64.706673 24.716200 -0.058591 0.585937 -8.066386 -3.134523 0.713426 -14.889106 0.057079 13.056655 16.870947 2.652960 13.178630 17.071880 -10.907591 -0.093510 -59.166096 -6.459381 17.615082 -128.592560 -0.155195 22.145393 21.196739 15.277629 5.275217 -7.459110 15.420313 -0.082463 42.578537 8.230650 27.075203 116.792412 1.699831 -0.202672 -20.998869 1.679122 -0.748859 -23.357052 23.940617 18.102627 24.276783 -1.440569 -2.083046 -18.739233 -4.686075 -13.555196 -2.530138 -11.314475 -25.121624 39.676075 0.513203 2.233574 -37.031952 1.670356 14.091679 
-0.621436 45.868347 3.031135 2.869700 -2.646795 -66.192917 24.804260 -0.078124 0.312500 -8.419508 -2.685464 0.449640 -14.018765 -0.104561 13.251966 16.688566 2.652217 13.246909 17.092497 -10.792733 -0.036676 -59.211300 -3.081051 17.165730 -128.012680 -0.282323 20.520741 22.094414 16.327898 5.902367 -7.453928 15.334956 -0.101129 44.137604 10.505828 25.352419 118.099396 1.668297 0.188524 -21.058125 0.654721 -0.419455 -22.663662 24.399380 18.442898 24.098682 -1.475471 -1.817827 -18.061869 -4.519469 -13.508358 -2.706341 -11.935444 -24.703802 39.485992 0.376411 2.333690 -36.623695 2.382693 14.775852 
-0.683355 45.818008 3.476391 3.135711 -2.470820 -67.688416 24.902271 -0.107422 0.039062 -8.766630 -2.236318 0.175647 -13.147211 -0.256454 13.437625 16.508438 2.660974 13.315645 17.114656 -10.674974 0.029324 -59.285107 0.304386 16.712746 -127.441689 -0.424628 18.901241 23.013840 17.356871 6.554115 -7.451448 15.248332 -0.110467 45.637226 12.834750 23.684118 119.411789 1.636775 0.580816 -21.131929 -0.378049 -0.084269 -21.972561 24.872656 18.749405 23.970181 -1.509048 -1.535398 -17.419050 -4.361721 -13.482714 -2.881159 -12.567005 -24.275005 39.314701 0.229851 2.441576 -36.260330 3.097772 15.422585 
-0.740530 45.766953 3.984753 3.321911 -2.383327 -69.183044 25.068529 -0.166016 -0.058622 -8.850818 -2.060544 0.087834 -12.799380 -0.512655 13.555182 16.163992 2.840728 13.386286 17.017988 -10.601420 -0.018357 -58.898701 2.812219 17.320568 -127.035683 -0.432873 18.802525 25.903713 18.222328 7.970312 -7.707419 15.174631 -0.140979 47.306187 14.986236 22.082489 120.732422 1.615515 0.299632 -21.660013 -0.081036 -0.230519 -21.628109 25.295719 19.629877 24.574883 -1.426950 -1.716660 -15.706783 -4.519710 -13.317982 -3.048191 -13.117779 -23.663506 39.054501 0.229976 2.342687 -35.842564 3.819447 15.835558 
